<svg id="visual" viewBox="0 0 900 600" width="900" height="600" xmlns="http://www.w3.org/2000/svg" xmlns:xlink="http://www.w3.org/1999/xlink" version="1.1"><path d="M0 227L37.5 226.8C75 226.7 150 226.3 225 220.5C300 214.7 375 203.3 450 201C525 198.7 600 205.3 675 207C750 208.7 825 205.3 862.5 203.7L900 202L900 601L862.5 601C825 601 750 601 675 601C600 601 525 601 450 601C375 601 300 601 225 601C150 601 75 601 37.5 601L0 601Z" fill="#62cf9d"></path><path d="M0 274L37.5 275.8C75 277.7 150 281.3 225 283.3C300 285.3 375 285.7 450 288C525 290.3 600 294.7 675 293C750 291.3 825 283.7 862.5 279.8L900 276L900 601L862.5 601C825 601 750 601 675 601C600 601 525 601 450 601C375 601 300 601 225 601C150 601 75 601 37.5 601L0 601Z" fill="#56c290"></path><path d="M0 365L37.5 359.5C75 354 150 343 225 337C300 331 375 330 450 335.2C525 340.3 600 351.7 675 357.2C750 362.7 825 362.3 862.5 362.2L900 362L900 601L862.5 601C825 601 750 601 675 601C600 601 525 601 450 601C375 601 300 601 225 601C150 601 75 601 37.5 601L0 601Z" fill="#4ab583"></path><path d="M0 431L37.5 432.8C75 434.7 150 438.3 225 439.2C300 440 375 438 450 438.3C525 438.7 600 441.3 675 437C750 432.7 825 421.3 862.5 415.7L900 410L900 601L862.5 601C825 601 750 601 675 601C600 601 525 601 450 601C375 601 300 601 225 601C150 601 75 601 37.5 601L0 601Z" fill="#3da876"></path><path d="M0 490L37.5 488.8C75 487.7 150 485.3 225 488C300 490.7 375 498.3 450 501.3C525 504.3 600 502.7 675 504.7C750 506.7 825 512.3 862.5 515.2L900 518L900 601L862.5 601C825 601 750 601 675 601C600 601 525 601 450 601C375 601 300 601 225 601C150 601 75 601 37.5 601L0 601Z" fill="#309b6a"></path></svg>